<?xml version="1.0" standalone="no"?>
<!DOCTYPE svg PUBLIC "-//W3C//DTD SVG 20010904//EN"
 "http://www.w3.org/TR/2001/REC-SVG-20010904/DTD/svg10.dtd">
<svg version="1.0" xmlns="http://www.w3.org/2000/svg"
 width="536.000000pt" height="536.000000pt" viewBox="0 0 536.000000 536.000000"
 preserveAspectRatio="xMidYMid meet">
<metadata>
Created by potrace 1.11, written by Peter Selinger 2001-2013
</metadata>
<g transform="translate(0.000000,536.000000) scale(0.100000,-0.100000)"
fill="#000000" stroke="none">
<path d="M1670 5212 c-14 -2 -30 -8 -37 -13 -7 -7 -14 -6 -18 1 -5 8 -11 8
-20 0 -8 -7 -19 -9 -25 -5 -5 3 -10 1 -10 -4 0 -6 -3 -10 -7 -10 -5 1 -17 1
-28 0 -14 -1 -16 -4 -7 -9 8 -6 1 -9 -19 -9 -19 0 -35 -6 -40 -16 -5 -9 -16
-14 -23 -11 -8 3 -21 -5 -30 -18 -9 -13 -19 -22 -21 -20 -11 5 -26 1 -21 -6 3
-5 -9 -17 -27 -27 -36 -22 -42 -25 -79 -58 -16 -14 -28 -29 -28 -36 0 -6 -6
-11 -14 -11 -8 0 -18 -5 -22 -12 -4 -7 -3 -8 4 -4 8 5 10 2 6 -8 -3 -9 -10
-13 -15 -10 -5 3 -12 -3 -16 -12 -3 -10 -15 -26 -25 -36 -10 -10 -16 -23 -13
-29 4 -5 1 -8 -6 -7 -7 2 -15 -6 -17 -17 -2 -11 -11 -24 -18 -28 -8 -5 -12
-12 -9 -17 3 -4 -9 -7 -25 -6 -17 1 -30 -2 -30 -7 0 -5 -7 -7 -15 -3 -8 3 -15
2 -15 -3 0 -5 -9 -11 -21 -14 -13 -4 -18 -10 -13 -18 4 -7 3 -10 -4 -5 -6 3
-14 1 -19 -7 -4 -7 -17 -13 -28 -13 -11 0 -19 -5 -18 -12 2 -6 -4 -9 -12 -6
-8 4 -15 1 -15 -6 0 -7 -7 -10 -15 -6 -8 3 -15 1 -15 -5 0 -6 -4 -8 -9 -4 -5
3 -12 1 -16 -4 -3 -5 -14 -8 -25 -6 -13 3 -18 0 -14 -7 5 -7 1 -9 -9 -5 -10 4
-17 1 -17 -5 0 -6 -3 -9 -6 -6 -3 4 -20 2 -37 -4 -37 -11 -83 -20 -114 -22
-13 0 -23 -5 -23 -9 0 -5 -4 -6 -9 -2 -5 3 -16 -2 -25 -10 -8 -9 -17 -11 -21
-6 -6 11 -66 -7 -77 -23 -5 -7 -8 -7 -8 2 0 9 -5 10 -19 3 -10 -6 -21 -7 -25
-4 -3 3 -6 1 -6 -6 0 -7 -6 -11 -14 -8 -7 3 -24 -1 -35 -10 -12 -8 -25 -12
-28 -9 -10 10 -53 -56 -58 -89 -1 -5 4 -16 9 -24 8 -11 8 -13 -1 -8 -7 5 -9 0
-6 -13 6 -23 14 -25 31 -8 7 7 12 8 12 4 0 -5 8 -2 17 5 12 10 15 11 9 1 -6
-10 -1 -11 21 -6 15 4 32 10 37 15 5 4 15 5 24 2 11 -5 13 -3 7 8 -7 11 -6 12
6 2 12 -10 18 -10 29 0 10 9 11 9 6 0 -5 -9 -2 -11 8 -7 9 3 14 9 11 13 -2 5
8 7 23 6 15 -1 38 4 51 12 18 12 22 12 15 2 -6 -11 -5 -12 8 -2 8 7 18 9 22 5
4 -4 14 2 22 12 8 11 14 14 14 7 0 -9 9 -11 33 -6 17 4 34 10 37 14 3 4 12 6
20 6 8 -1 21 4 29 9 11 8 13 8 7 -1 -5 -9 -2 -11 8 -7 9 3 16 10 16 16 0 5 4
7 9 3 5 -3 13 -1 16 5 5 8 11 8 20 0 9 -8 15 -8 20 0 3 6 11 8 16 5 5 -4 9 -2
9 3 0 5 10 8 23 7 12 -1 27 2 33 6 6 5 20 7 33 4 12 -2 19 0 16 6 -4 5 3 10
14 10 12 1 26 2 31 3 13 1 30 28 24 37 -2 4 -1 10 4 12 4 3 12 -6 19 -19 6
-13 7 -22 2 -18 -5 3 -6 -2 -3 -11 4 -9 11 -14 18 -12 12 4 36 -16 36 -31 0
-5 -13 -8 -30 -7 -19 2 -27 -1 -23 -8 4 -6 0 -8 -10 -4 -10 3 -17 2 -17 -3 0
-5 -9 -7 -20 -5 -11 2 -20 0 -20 -4 0 -4 -6 -8 -12 -9 -71 -9 -101 -20 -92
-33 3 -5 -6 -5 -20 1 -14 5 -26 6 -26 1 0 -5 -12 -8 -26 -8 -15 0 -29 -5 -33
-10 -3 -5 -16 -8 -28 -7 -13 1 -23 -3 -23 -8 0 -6 -7 -8 -15 -4 -8 3 -15 0
-15 -5 0 -6 -9 -9 -20 -6 -11 3 -20 1 -20 -5 0 -5 -4 -6 -10 -3 -6 3 -10 2
-10 -4 0 -6 -7 -8 -15 -5 -8 4 -15 1 -15 -6 0 -6 -4 -8 -10 -5 -6 3 -16 3 -23
-2 -12 -7 -17 -9 -36 -12 -5 0 -17 -8 -25 -17 -9 -8 -16 -11 -16 -5 0 6 -7 11
-15 11 -8 0 -15 -5 -15 -11 0 -6 -6 -9 -14 -6 -7 3 -24 0 -37 -7 -27 -14 -34
-16 -52 -16 -8 0 -14 -7 -14 -15 0 -8 4 -15 9 -15 4 0 8 -7 8 -15 0 -13 6 -17
26 -14 4 0 10 -5 14 -11 9 -14 100 -21 100 -8 0 5 5 6 10 3 6 -3 10 -2 10 3 0
4 16 8 35 7 19 -1 35 1 35 4 0 4 12 6 28 6 15 -1 35 3 46 8 10 5 28 10 40 12
11 2 32 6 46 10 14 3 40 7 58 9 18 2 40 10 49 17 12 10 15 10 9 2 -10 -18 9
-16 28 2 8 8 17 11 20 6 4 -5 16 -8 29 -6 12 2 40 7 62 11 22 3 43 11 47 18 5
7 8 7 8 1 0 -6 22 -11 50 -11 28 0 50 5 50 11 0 6 3 7 8 0 6 -9 23 -14 60 -17
6 -1 12 -5 12 -10 0 -4 6 -8 13 -8 22 0 79 -62 75 -82 -2 -7 4 -12 12 -10 12
3 12 1 3 -9 -7 -7 -9 -18 -4 -28 5 -9 7 -24 6 -33 -2 -10 2 -18 8 -18 8 0 8
-3 2 -8 -13 -9 -14 -92 -2 -92 6 0 6 -5 0 -12 -11 -16 -11 -48 1 -67 7 -10 6
-12 -4 -6 -10 6 -12 4 -7 -8 3 -9 2 -19 -3 -22 -4 -3 -7 -16 -6 -30 2 -13 -1
-22 -5 -19 -9 5 -10 -1 -12 -43 -1 -10 -10 -24 -19 -31 -10 -7 -16 -18 -13
-23 4 -5 1 -9 -5 -9 -6 0 -9 -4 -5 -9 3 -5 1 -12 -5 -16 -5 -3 -10 -15 -10
-26 0 -10 -4 -19 -9 -19 -8 0 -22 -32 -25 -55 -1 -5 -7 -14 -14 -18 -7 -5 -10
-12 -7 -18 4 -5 1 -9 -6 -9 -6 0 -9 -8 -6 -20 3 -11 2 -18 -2 -15 -7 4 -38
-73 -34 -85 0 -3 -3 -13 -9 -24 -8 -14 -7 -17 3 -11 8 6 10 4 3 -6 -4 -8 -9
-24 -10 -37 0 -12 -9 -31 -19 -42 -10 -11 -15 -20 -11 -20 4 0 -2 -13 -13 -29
-11 -15 -18 -31 -14 -35 3 -3 2 -6 -4 -6 -6 0 -10 -8 -10 -17 0 -28 -14 -63
-25 -63 -6 0 -6 -5 1 -14 9 -11 8 -15 -4 -20 -9 -3 -13 -11 -9 -17 4 -8 3 -9
-4 -5 -7 4 -12 3 -12 -3 0 -7 -8 -7 -27 0 -19 7 -29 6 -37 -2 -8 -9 -7 -10 4
-4 11 7 11 4 -2 -11 -18 -21 -42 -74 -39 -87 1 -5 -9 -22 -21 -39 -12 -18 -15
-28 -7 -23 12 8 12 6 0 -8 -7 -9 -10 -17 -7 -17 4 0 0 -10 -8 -22 -9 -12 -16
-30 -16 -40 0 -10 -5 -18 -12 -18 -6 0 -8 -3 -5 -7 4 -3 1 -13 -6 -21 -10 -13
-9 -14 1 -8 7 4 4 -7 -7 -25 -11 -18 -18 -36 -15 -41 3 -4 0 -8 -6 -8 -6 0 -8
-4 -5 -10 3 -5 2 -10 -3 -10 -6 0 -8 -9 -5 -20 3 -12 0 -20 -8 -20 -7 0 -10
-3 -7 -6 4 -3 0 -20 -7 -39 -8 -18 -11 -35 -8 -39 4 -3 1 -6 -6 -6 -8 0 -11
-7 -7 -15 3 -8 1 -15 -3 -15 -5 0 -12 -7 -15 -16 -4 -10 -2 -13 7 -8 9 6 9 4
1 -7 -6 -8 -10 -22 -9 -32 2 -9 0 -17 -4 -17 -4 0 -8 -6 -9 -12 -1 -21 -10
-57 -17 -68 -3 -6 0 -10 7 -10 8 0 9 -3 3 -8 -5 -4 -11 -11 -12 -17 0 -5 -4
-26 -8 -45 -10 -57 -12 -170 -3 -176 4 -3 4 -13 0 -22 -10 -20 -8 -130 2 -154
4 -9 5 -21 2 -27 -4 -5 -2 -12 3 -15 5 -4 8 -14 6 -24 -1 -9 2 -22 7 -29 5 -7
5 -14 -2 -18 -6 -3 -7 -12 -3 -18 4 -7 8 -21 8 -32 0 -11 4 -26 9 -33 4 -7 10
-24 12 -39 3 -15 9 -32 15 -39 5 -6 6 -14 2 -17 -3 -4 -2 -7 4 -7 5 0 10 -6
11 -12 3 -39 8 -54 20 -61 7 -5 10 -12 7 -18 -4 -5 -1 -9 6 -9 7 0 10 -3 6 -6
-3 -4 0 -19 8 -34 8 -15 11 -30 8 -34 -4 -3 1 -6 10 -6 10 0 17 -4 17 -10 0
-5 10 -19 23 -31 12 -12 16 -18 8 -14 -9 5 -7 -2 5 -18 10 -15 22 -27 27 -27
4 0 7 -6 7 -12 1 -18 46 -68 61 -68 7 0 10 -3 6 -6 -3 -4 4 -15 16 -26 12 -11
16 -16 8 -12 -9 5 -12 3 -7 -4 4 -7 14 -12 22 -12 8 0 12 -4 9 -10 -3 -5 0
-10 8 -10 8 0 25 -13 38 -30 13 -16 30 -30 37 -30 6 0 12 -4 12 -10 0 -5 5
-10 10 -10 6 0 22 -10 35 -23 38 -35 55 -48 55 -42 0 3 12 -5 27 -19 15 -14
30 -23 35 -20 4 3 8 1 8 -3 0 -13 56 -43 65 -35 5 4 5 1 1 -5 -6 -12 0 -15 21
-12 3 0 10 -6 15 -15 5 -9 16 -16 23 -16 8 0 15 -4 15 -10 0 -5 5 -10 11 -10
5 0 7 6 4 13 -4 6 2 3 12 -9 10 -11 24 -19 31 -16 6 2 12 -1 12 -7 0 -6 7 -11
15 -11 9 0 18 -6 21 -13 2 -7 14 -14 26 -14 12 -1 24 -7 28 -14 6 -8 9 -8 15
1 5 8 14 5 32 -12 13 -13 26 -22 29 -20 2 1 5 2 7 1 1 0 11 -2 21 -4 10 -2 22
-9 26 -16 5 -6 15 -9 25 -6 10 4 14 3 10 -4 -4 -6 -1 -9 6 -8 8 1 30 -5 49
-13 73 -31 84 -35 130 -40 14 -2 28 -8 33 -15 4 -6 17 -10 29 -8 12 3 31 -1
43 -8 11 -7 35 -13 53 -12 17 0 32 -3 32 -6 0 -9 112 -34 145 -32 16 1 36 -3
44 -10 12 -10 13 -9 6 2 -6 11 -5 12 6 5 20 -12 38 -14 44 -3 4 5 18 1 33 -9
18 -12 24 -13 18 -3 -7 10 -5 12 4 6 7 -5 25 -9 39 -11 22 -2 66 -7 146 -18
11 -1 25 2 31 6 7 5 18 7 25 6 8 -2 13 2 12 9 -1 6 5 10 15 8 9 -1 25 2 35 7
13 6 23 5 34 -4 19 -15 23 -15 34 4 5 7 9 8 9 3 0 -12 95 -14 106 -2 4 3 16 1
28 -5 25 -14 26 -13 37 4 7 11 9 11 9 -1 0 -9 4 -10 13 -3 6 5 31 9 55 8 23
-1 42 1 42 5 0 3 10 5 23 4 12 -1 28 -3 35 -4 6 0 12 -5 12 -11 0 -18 43 -60
54 -53 6 3 8 2 3 -2 -4 -5 3 -19 15 -32 12 -13 18 -23 14 -23 -4 0 0 -7 8 -16
19 -19 8 -46 -20 -50 -37 -5 -77 -15 -96 -25 -10 -5 -18 -7 -18 -5 0 3 -12 1
-27 -5 -16 -6 -39 -13 -53 -16 -13 -2 -29 -8 -35 -12 -5 -4 -28 -7 -50 -7 -22
1 -53 -3 -70 -7 -35 -11 -255 -17 -270 -9 -17 11 -119 9 -134 -2 -12 -9 -13
-8 -6 3 6 10 4 12 -6 6 -7 -5 -32 -10 -53 -11 -25 -1 -45 -9 -53 -20 -7 -10
-13 -14 -13 -8 0 5 -6 0 -13 -11 -12 -21 -14 -26 -16 -50 0 -8 -7 -12 -14 -9
-7 2 -27 -6 -45 -20 -21 -15 -28 -25 -20 -28 19 -7 39 2 32 14 -5 7 -2 8 6 3
16 -10 70 -15 70 -6 0 4 45 7 100 7 55 0 100 -3 100 -8 0 -5 4 -7 9 -3 5 3 16
-1 24 -9 8 -8 18 -12 22 -8 4 4 3 -3 -3 -14 -6 -12 -8 -24 -5 -28 3 -3 1 -6
-5 -6 -7 0 -12 -4 -12 -8 0 -13 34 -11 42 2 5 7 8 6 8 -3 0 -9 4 -10 13 -4 6
5 46 9 87 8 41 0 81 4 89 10 11 7 13 7 8 -1 -4 -7 1 -14 11 -16 24 -6 43 2 36
14 -4 7 -2 8 5 4 6 -4 19 -2 28 6 11 9 14 9 10 1 -5 -7 10 -3 32 9 22 12 38
24 36 28 -2 3 5 11 16 18 12 8 19 9 19 1 0 -5 5 -7 10 -4 6 4 7 11 4 17 -5 7
-1 9 9 5 10 -3 17 -2 17 3 0 6 6 10 13 10 6 0 23 9 36 19 14 10 31 17 38 14 7
-3 13 0 13 6 0 6 3 11 8 10 17 -3 51 14 46 22 -3 5 1 6 9 3 8 -3 18 0 22 5 3
6 11 9 16 6 5 -4 15 -3 22 2 12 8 26 12 63 18 28 4 81 32 90 46 5 8 2 10 -7 5
-8 -4 -3 2 11 14 14 12 19 18 11 14 -9 -4 -12 -3 -7 4 3 6 15 9 26 7 12 -2 18
0 15 6 -4 5 1 9 10 9 8 0 18 7 22 16 3 8 11 13 18 10 7 -2 21 4 31 15 18 20
17 21 -36 22 -23 1 -70 -25 -64 -34 3 -5 -2 -9 -10 -9 -9 0 -16 5 -16 11 0 5
-4 7 -10 4 -5 -3 -10 0 -10 8 0 8 -7 17 -15 21 -8 3 -15 0 -15 -6 0 -6 -9 -1
-20 12 -11 13 -20 27 -20 32 0 5 -4 6 -10 3 -6 -3 -7 1 -4 9 3 9 1 16 -5 16
-6 0 -11 9 -11 21 0 11 -4 18 -9 15 -12 -8 -21 28 -11 44 7 11 42 20 88 23 6
0 12 4 12 8 0 4 11 6 25 4 14 -1 25 1 25 6 0 4 9 6 20 4 11 -2 20 0 20 5 0 5
7 7 15 4 8 -4 15 -2 15 3 0 6 12 9 28 8 15 -1 32 2 38 6 6 5 24 10 40 12 17 2
35 7 42 11 7 4 17 4 22 1 6 -3 10 -1 10 5 0 7 6 10 13 7 6 -2 26 4 42 13 17 9
42 15 57 14 14 -2 29 3 31 10 4 9 15 12 33 8 20 -4 25 -2 19 8 -5 9 -4 11 3 6
7 -4 18 -4 25 1 6 4 19 8 27 10 8 1 23 6 35 12 23 11 77 25 88 23 4 -1 7 3 7
8 0 5 3 9 8 9 4 -1 9 0 12 1 15 5 47 11 62 11 10 0 20 4 23 10 4 5 14 9 24 9
10 0 30 9 44 20 14 12 27 16 29 10 2 -6 13 -2 25 9 11 11 23 17 27 14 3 -3 12
-1 20 6 8 6 20 10 27 9 8 -2 13 3 11 10 -1 8 2 11 8 7 6 -4 18 -1 27 7 12 9
15 9 9 1 -5 -9 -2 -11 8 -7 9 3 16 10 16 16 0 5 4 7 9 3 5 -3 12 -1 16 5 4 6
11 8 16 5 5 -4 9 -2 9 4 0 7 8 7 23 2 12 -5 21 -14 19 -20 -1 -6 5 -14 13 -17
8 -4 15 -13 15 -21 0 -13 3 -13 15 -3 13 10 13 14 0 27 -8 8 -20 11 -27 7 -9
-6 -9 -3 1 9 12 15 9 21 -11 18 -4 0 -6 8 -5 19 1 10 5 16 9 14 4 -3 8 0 8 6
0 6 4 9 9 5 5 -3 15 1 23 8 7 8 21 13 31 11 9 -1 15 1 12 6 -3 4 7 11 21 14
29 8 105 53 116 70 4 6 8 7 8 2 0 -6 12 2 28 16 15 14 35 28 45 31 9 4 17 14
17 22 0 9 3 14 8 12 10 -6 52 39 44 48 -4 4 0 6 8 3 18 -6 30 6 69 68 17 26
31 44 31 38 0 -5 6 0 13 11 12 21 14 26 16 50 0 8 7 14 14 12 6 -1 11 4 10 10
-2 7 2 13 8 13 5 0 8 4 5 9 -3 5 0 14 8 20 13 11 26 44 25 65 -1 5 4 12 9 15
9 5 21 50 24 89 1 6 5 12 10 12 4 0 6 14 3 30 -3 17 -1 30 4 30 10 0 9 19 -2
36 -3 6 -3 14 1 18 9 9 9 66 1 66 -4 0 -6 17 -5 38 1 27 -3 36 -13 34 -12 -3
-12 0 -2 12 9 10 9 16 1 21 -6 4 -9 13 -6 21 3 8 1 14 -4 14 -5 0 -6 7 -3 17
4 10 2 14 -4 10 -6 -4 -15 11 -22 39 -8 31 -15 43 -24 38 -6 -4 -9 -4 -5 1 4
4 -1 24 -12 45 -11 21 -16 40 -13 44 4 3 1 6 -5 6 -6 0 -13 8 -17 19 -3 10
-14 29 -25 41 -11 12 -17 27 -14 31 3 5 0 9 -6 9 -6 0 -15 11 -22 25 -6 13
-15 22 -21 18 -6 -3 -7 -1 -3 5 3 6 -5 22 -19 36 -14 14 -23 26 -20 26 3 0 -3
8 -12 18 -10 11 -21 17 -25 15 -5 -2 -8 4 -8 15 0 10 -11 25 -25 32 -13 7 -27
21 -30 30 -5 16 -95 105 -95 95 0 -3 -13 9 -30 27 -16 17 -30 27 -30 23 0 -4
-9 2 -20 15 -11 13 -20 19 -20 14 0 -5 -5 -1 -11 9 -5 9 -17 17 -24 17 -8 0
-15 8 -15 17 0 9 -3 14 -6 11 -3 -4 -22 5 -41 18 -19 13 -39 21 -44 18 -5 -3
-9 2 -9 11 0 9 -4 13 -10 10 -5 -3 -10 -1 -10 4 0 6 -7 11 -16 11 -8 0 -12 5
-9 10 3 6 -3 10 -14 10 -12 0 -21 5 -21 10 0 6 -9 10 -20 10 -11 0 -20 5 -20
10 0 6 -12 10 -27 10 -14 0 -23 3 -19 7 8 8 -63 45 -74 38 -4 -3 -11 2 -14 11
-4 9 -13 14 -21 10 -8 -3 -15 -1 -15 5 0 6 -4 8 -9 4 -5 -3 -12 -1 -16 5 -4 6
-11 8 -16 5 -5 -4 -9 -1 -9 5 0 6 -4 8 -10 5 -5 -3 -10 -1 -10 5 0 6 -4 8 -10
5 -6 -3 -10 -1 -10 6 0 6 -8 9 -19 6 -12 -3 -22 1 -25 10 -5 12 -9 13 -20 4
-11 -9 -16 -9 -22 0 -5 8 -3 9 6 4 9 -6 11 -4 6 4 -5 7 -14 10 -22 7 -8 -3
-14 -1 -14 5 0 6 -5 7 -10 4 -5 -3 -10 -1 -10 6 0 10 -3 10 -12 1 -8 -8 -19
-7 -42 5 -66 34 -68 35 -61 23 5 -7 -2 -6 -16 2 -13 8 -31 14 -39 14 -8 -1
-21 4 -28 11 -7 7 -19 10 -26 7 -8 -3 -25 1 -38 9 -13 7 -34 13 -48 12 -14 -1
-33 3 -44 8 -13 6 -16 6 -11 -3 4 -7 -6 -5 -24 4 -17 9 -31 13 -31 9 0 -5 -4
-2 -9 6 -7 12 -13 12 -24 3 -7 -7 -16 -9 -19 -7 -10 10 -78 13 -84 4 -3 -5
-10 -6 -16 -3 -19 12 -79 14 -72 2 5 -7 2 -8 -7 -2 -19 12 -109 12 -109 0 0
-5 -3 -6 -7 -3 -3 4 -13 1 -21 -6 -13 -9 -14 -9 -8 1 4 7 2 12 -7 12 -8 0 -18
-7 -21 -16 -4 -11 -10 -13 -19 -7 -11 8 -32 10 -39 3 -2 -1 -18 -3 -35 -5 -18
-1 -40 -8 -50 -16 -15 -12 -16 -12 -8 1 8 13 7 13 -10 0 -10 -8 -21 -14 -24
-14 -3 1 -17 -2 -29 -7 -13 -5 -27 -7 -32 -4 -5 3 -15 -1 -23 -9 -8 -8 -17
-13 -20 -10 -2 3 -20 -4 -40 -15 -19 -11 -38 -17 -41 -14 -3 4 -6 1 -6 -6 0
-7 -4 -9 -10 -6 -5 3 -10 2 -10 -2 0 -5 -12 -14 -27 -20 -16 -7 -47 -23 -70
-37 -22 -13 -44 -22 -47 -19 -3 4 -6 1 -6 -4 0 -6 -20 -24 -44 -39 -25 -16
-42 -32 -39 -38 3 -5 1 -6 -5 -2 -6 3 -18 -1 -26 -10 -9 -8 -16 -13 -16 -10 0
4 -14 -7 -31 -24 -18 -16 -36 -30 -40 -30 -5 0 -9 -8 -10 -17 0 -10 -3 -13 -5
-6 -6 13 -27 -2 -69 -44 -12 -13 -28 -23 -34 -23 -7 0 -9 -4 -6 -10 3 -5 0
-10 -8 -10 -8 0 -29 -13 -46 -29 -16 -15 -33 -26 -36 -23 -3 3 -5 0 -5 -6 0
-7 -18 -19 -40 -28 -23 -9 -37 -21 -33 -27 3 -5 1 -7 -5 -3 -6 3 -23 1 -39 -6
-33 -13 -165 -19 -157 -6 3 4 1 8 -4 8 -15 0 -73 60 -67 69 3 5 -1 11 -9 14
-8 3 -12 16 -11 31 2 14 -1 26 -7 26 -7 0 -7 4 -1 13 6 6 9 20 8 30 -2 9 1 17
6 17 5 0 9 5 9 11 0 5 -6 7 -12 3 -7 -4 -5 2 5 13 10 11 17 24 16 29 -1 5 1
17 6 27 4 10 2 24 -6 34 -12 14 -12 16 1 9 8 -4 7 -1 -3 7 -15 13 -16 19 -7
36 6 12 7 21 3 21 -4 0 -3 4 4 8 7 4 15 23 18 42 3 19 11 37 17 41 6 4 7 12 3
18 -4 7 -3 17 2 24 5 7 8 26 8 42 -1 17 5 38 13 47 8 9 11 22 6 29 -4 8 -3 10
4 5 8 -5 12 0 12 13 0 12 5 21 11 21 6 0 9 7 5 15 -3 8 -1 15 5 15 6 0 8 4 5
9 -4 5 3 30 14 56 12 28 15 43 7 39 -9 -6 -9 -5 0 8 7 8 9 18 5 22 -4 4 0 6 8
4 9 -2 15 5 16 20 1 12 2 29 3 38 1 9 6 12 14 8 6 -4 9 -4 5 1 -4 4 -1 23 7
42 8 18 10 31 5 28 -6 -3 -10 -1 -10 4 0 6 4 11 9 11 10 0 27 39 23 53 -1 4 3
7 9 7 5 0 7 6 3 13 -6 10 -4 10 7 0 7 -7 17 -13 22 -13 4 0 5 6 1 13 -6 9 -4
9 8 -1 11 -9 18 -10 23 -2 3 6 11 7 17 4 6 -4 8 1 4 14 -4 11 -2 23 4 27 8 5
7 12 -2 23 -7 10 -8 14 -4 10 14 -12 36 25 24 39 -7 9 -7 13 2 13 7 0 10 6 7
14 -3 8 1 17 9 20 10 4 13 13 9 25 -3 10 1 24 10 31 11 9 12 16 5 25 -8 10 -8
15 1 21 8 5 9 3 4 -6 -5 -8 -4 -11 3 -6 5 3 13 24 17 45 4 22 12 45 19 51 7 5
12 21 11 34 -2 14 3 27 10 30 7 2 12 13 11 23 -2 10 1 21 7 24 5 4 11 17 12
30 1 13 3 30 4 37 0 7 6 10 13 6 8 -5 9 -2 5 11 -4 9 -2 24 4 31 9 11 8 14 -1
14 -9 0 -10 3 -1 14 6 8 13 27 14 44 1 16 5 28 8 26 4 -2 7 9 8 24 0 15 2 57
3 95 2 40 -1 67 -7 67 -5 0 -4 4 4 9 8 5 9 11 3 15 -6 3 -9 20 -7 36 2 17 -1
30 -6 30 -6 0 -8 4 -4 9 3 5 -1 16 -9 24 -8 8 -12 17 -9 21 4 3 0 6 -8 6 -12
0 -12 2 0 9 13 8 13 12 1 26 -8 9 -15 24 -16 32 -1 8 -11 21 -21 30 -10 8 -12
12 -6 8 9 -4 11 -1 7 9 -3 9 -9 16 -13 16 -4 0 -15 14 -24 30 -10 17 -15 30
-11 30 4 0 -7 14 -24 30 -18 17 -29 30 -25 30 4 0 -2 7 -13 16 -10 8 -12 13
-4 9 17 -7 -3 10 -41 35 -12 8 -31 23 -41 33 -10 9 -18 15 -18 12 0 -3 -9 4
-20 15 -12 12 -25 18 -29 15 -5 -2 -12 2 -15 11 -3 9 -13 14 -20 11 -8 -3 -20
0 -26 8 -6 7 -20 12 -31 10 -11 -2 -17 -1 -15 4 3 4 -4 13 -16 20 -11 7 -17 8
-14 2 4 -7 1 -8 -8 -5 -9 3 -16 9 -16 13 0 4 -16 7 -35 6 -19 -1 -35 3 -35 8
0 6 -3 7 -6 4 -4 -3 -16 -2 -27 4 -15 9 -18 8 -12 -2 6 -8 4 -10 -5 -4 -15 9
-61 12 -100 7z"/>
<path d="M4630 1004 c0 -10 28 -34 40 -34 6 0 9 -4 6 -9 -4 -5 -1 -11 5 -13 8
-3 7 -9 -4 -19 -22 -22 -9 -34 43 -36 69 -4 74 -5 87 -15 8 -6 11 -4 9 6 -2
18 -52 66 -60 58 -3 -3 -6 2 -6 11 0 10 -4 17 -10 17 -5 0 -9 3 -9 8 3 18 -2
32 -12 32 -6 0 -9 -7 -6 -15 9 -22 -12 -29 -32 -11 -10 9 -21 13 -24 9 -4 -3
-7 -1 -7 5 0 7 -4 12 -10 12 -5 0 -10 -3 -10 -6z"/>
</g>
</svg>
